# xmcd CD database file
#
# Track frame offsets:
#	150
#	20733
#	27235
#	63907
#	89104
#	92506
#	122272
#	146034
#	162813
#	189225
#	207564
#
# Disc length: 3283 seconds
#
# Revision: 0
# Processed by: cddbd v1.5.2PL0 Copyright (c) Steve Scherf et al.
# Submitted via: CDex 1.70beta2
#
DISCID=920cd10b
DTITLE=Eldar - Re-imagination
DYEAR=2007
DGENRE=Jazz
TTITLE0=I Remember When
TTITLE1=Interlude #1 (Soul Glare)
TTITLE2=Prairie Village
TTITLE3=Out of Nowhere
TTITLE4=Interude #2 (Ordered Chaos)
TTITLE5=Back Home
TTITLE6=Place St. Henri
TTITLE7=Tears
TTITLE8=South Bixel
TTITLE9=Dream Song
TTITLE10=Polaris
EXTD=YEAR: 2007
EXTT0=
EXTT1=
EXTT2=
EXTT3=
EXTT4=
EXTT5=
EXTT6=
EXTT7=
EXTT8=
EXTT9=
EXTT10=
PLAYORDER=
